<?xml version="1.0" encoding="UTF-8" standalone="no"?>
<!-- Created with Inkscape (http://www.inkscape.org/) -->

<svg
   width="130.01347mm"
   height="163.53833mm"
   viewBox="0 0 130.01347 163.53833"
   version="1.1"
   id="svg1"
   inkscape:version="1.4 (e7c3feb1, 2024-10-09)"
   sodipodi:docname="loco.svg"
   xmlns:inkscape="http://www.inkscape.org/namespaces/inkscape"
   xmlns:sodipodi="http://sodipodi.sourceforge.net/DTD/sodipodi-0.dtd"
   xmlns="http://www.w3.org/2000/svg"
   xmlns:svg="http://www.w3.org/2000/svg">
  <sodipodi:namedview
     id="namedview1"
     pagecolor="#505050"
     bordercolor="#eeeeee"
     borderopacity="1"
     inkscape:showpageshadow="0"
     inkscape:pageopacity="0"
     inkscape:pagecheckerboard="0"
     inkscape:deskcolor="#505050"
     inkscape:document-units="mm"
     inkscape:zoom="1.051451"
     inkscape:cx="259.64119"
     inkscape:cy="290.55085"
     inkscape:window-width="1920"
     inkscape:window-height="1172"
     inkscape:window-x="0"
     inkscape:window-y="43"
     inkscape:window-maximized="1"
     inkscape:current-layer="layer1" />
  <defs
     id="defs1">
    <clipPath
       clipPathUnits="userSpaceOnUse"
       id="clipPath419-5">
      <path
         d="m 483.591,11.338 h 84.189 v 84.19 h -84.189 z"
         transform="translate(-518.11051,-80.533577)"
         id="path419-4" />
    </clipPath>
    <clipPath
       clipPathUnits="userSpaceOnUse"
       id="clipPath421-91">
      <path
         d="m 483.591,11.338 h 84.189 v 84.19 h -84.189 z"
         transform="translate(-515.13511,-76.678802)"
         id="path421-7" />
    </clipPath>
    <clipPath
       clipPathUnits="userSpaceOnUse"
       id="clipPath423-5">
      <path
         d="m 483.591,11.338 h 84.189 v 84.19 h -84.189 z"
         transform="translate(-536.34641,-76.678802)"
         id="path423-54" />
    </clipPath>
    <clipPath
       clipPathUnits="userSpaceOnUse"
       id="clipPath425-1">
      <path
         d="m 483.591,11.338 h 84.189 v 84.19 h -84.189 z"
         transform="translate(-530.58412,-50.420701)"
         id="path425-8" />
    </clipPath>
    <clipPath
       clipPathUnits="userSpaceOnUse"
       id="clipPath427-8">
      <path
         d="m 483.591,11.338 h 84.189 v 84.19 h -84.189 z"
         transform="translate(-523.10471,-62.867177)"
         id="path427-3" />
    </clipPath>
    <clipPath
       clipPathUnits="userSpaceOnUse"
       id="clipPath429-5">
      <path
         d="m 483.591,11.338 h 84.189 v 84.19 h -84.189 z"
         transform="translate(-528.46951,-63.099377)"
         id="path429-2" />
    </clipPath>
    <clipPath
       clipPathUnits="userSpaceOnUse"
       id="clipPath431-2">
      <path
         d="m 483.591,11.338 h 84.189 v 84.19 h -84.189 z"
         transform="translate(-513.29341,-60.756827)"
         id="path431-6" />
    </clipPath>
    <clipPath
       clipPathUnits="userSpaceOnUse"
       id="clipPath433-6">
      <path
         d="m 483.591,11.338 h 84.189 v 84.19 h -84.189 z"
         transform="translate(-538.09301,-60.872927)"
         id="path433-7" />
    </clipPath>
    <clipPath
       clipPathUnits="userSpaceOnUse"
       id="clipPath435-8">
      <path
         d="m 483.591,11.338 h 84.189 v 84.19 h -84.189 z"
         transform="translate(-530.89582,-67.820177)"
         id="path435-4" />
    </clipPath>
    <clipPath
       clipPathUnits="userSpaceOnUse"
       id="clipPath437-1">
      <path
         d="m 483.591,11.338 h 84.189 v 84.19 h -84.189 z"
         transform="translate(-520.66331,-67.936277)"
         id="path437-7" />
    </clipPath>
    <clipPath
       clipPathUnits="userSpaceOnUse"
       id="clipPath439-1">
      <path
         d="m 483.591,11.338 h 84.189 v 84.19 h -84.189 z"
         transform="translate(-525.76552,-68.858702)"
         id="path439-8" />
    </clipPath>
    <clipPath
       clipPathUnits="userSpaceOnUse"
       id="clipPath441-7">
      <path
         d="m 483.591,11.338 h 84.189 v 84.19 h -84.189 z"
         transform="translate(-525.93622,-44.687476)"
         id="path441-8" />
    </clipPath>
    <clipPath
       clipPathUnits="userSpaceOnUse"
       id="clipPath443-7">
      <path
         d="m 483.591,11.338 h 84.189 v 84.19 h -84.189 z"
         transform="translate(-518.80411,-50.145826)"
         id="path443-74" />
    </clipPath>
    <clipPath
       clipPathUnits="userSpaceOnUse"
       id="clipPath445-4">
      <path
         d="m 483.591,11.338 h 84.189 v 84.19 h -84.189 z"
         transform="translate(-532.61801,-50.661901)"
         id="path445-9" />
    </clipPath>
  </defs>
  <g
     inkscape:label="Layer 1"
     inkscape:groupmode="layer"
     id="layer1"
     transform="translate(15.017764,25.627471)">
    <g
       id="g3"
       transform="matrix(2.4167001,0,0,2.4167,1087.3582,-49.469098)">
      <path
         id="path418"
         d="m 0,0 c -0.213,-0.006 -0.443,-0.084 -0.703,-0.286 -0.639,0.242 -1.258,0.326 -1.811,-0.168 -0.855,0.11 -1.133,-0.116 -1.343,-0.378 -0.187,0.003 -1.404,0.189 -1.962,-0.63 -1.401,0.163 -1.844,-0.812 -1.342,-1.722 -0.286,-0.436 -0.583,-0.868 0.086,-1.7 -0.236,-0.463 -0.09,-0.966 0.468,-1.575 -0.147,-0.651 0.143,-1.111 0.661,-1.469 -0.097,-0.892 0.831,-1.41 1.107,-1.595 0.106,-0.519 0.328,-1.009 1.387,-1.28 0.175,-0.775 0.812,-0.908 1.428,-1.071 -2.038,-1.166 -3.784,-2.701 -3.772,-6.466 l -0.299,-0.524 c -2.335,-1.399 -4.437,-5.896 -1.151,-9.551 0.215,-1.144 0.575,-1.966 0.895,-2.875 0.48,-3.666 3.608,-5.381 4.434,-5.584 1.209,-0.908 2.497,-1.769 4.24,-2.372 1.642,-1.669 3.422,-2.305 5.212,-2.304 0.026,0 0.053,0 0.079,0 1.79,-0.001 3.57,0.635 5.212,2.304 1.743,0.603 3.031,1.464 4.241,2.372 0.825,0.203 3.954,1.918 4.433,5.584 0.32,0.909 0.68,1.731 0.895,2.875 3.286,3.655 1.185,8.153 -1.151,9.551 l -0.299,0.525 c 0.012,3.764 -1.735,5.299 -3.772,6.466 0.616,0.162 1.253,0.296 1.427,1.07 1.059,0.271 1.281,0.761 1.388,1.281 0.276,0.184 1.203,0.703 1.106,1.595 0.519,0.358 0.809,0.818 0.662,1.469 0.557,0.608 0.704,1.111 0.468,1.575 0.669,0.832 0.372,1.263 0.086,1.699 0.501,0.91 0.059,1.885 -1.343,1.722 -0.558,0.819 -1.774,0.633 -1.962,0.63 -0.21,0.263 -0.488,0.488 -1.342,0.379 -0.554,0.493 -1.173,0.409 -1.811,0.167 -0.758,0.588 -1.26,0.116 -1.833,-0.062 -0.917,0.295 -1.127,-0.109 -1.578,-0.274 -1.001,0.208 -1.305,-0.245 -1.784,-0.724 l -0.559,0.011 C 8.589,-2.211 7.839,-3.996 7.573,-4.913 7.308,-3.995 6.559,-2.211 5.05,-1.335 L 4.492,-1.346 C 4.012,-0.867 3.707,-0.414 2.707,-0.622 2.256,-0.457 2.047,-0.053 1.128,-0.348 0.752,-0.231 0.406,0.012 -0.001,0 Z"
         style="fill:#020203;fill-opacity:1;fill-rule:nonzero;stroke:none"
         transform="matrix(1.3333333,0,0,-1.3333333,-439.3498,16.0007)"
         clip-path="url(#clipPath419-5)" />
      <path
         id="path420"
         d="M 0,0 C 4.005,-2.034 6.333,-3.679 7.609,-5.08 6.955,-7.659 3.548,-7.776 2.302,-7.704 c 0.255,0.117 0.468,0.257 0.543,0.472 -0.312,0.219 -1.421,0.023 -2.195,0.452 0.297,0.06 0.437,0.119 0.576,0.336 -0.731,0.229 -1.519,0.427 -1.982,0.808 0.25,-0.003 0.483,-0.055 0.809,0.168 -0.655,0.348 -1.353,0.623 -1.896,1.154 0.338,0.008 0.703,0.003 0.809,0.126 -0.599,0.366 -1.105,0.773 -1.524,1.218 0.475,-0.057 0.675,-0.008 0.789,0.073 -0.453,0.457 -1.026,0.843 -1.3,1.406 0.352,-0.119 0.674,-0.165 0.906,0.011 -0.154,0.342 -0.814,0.544 -1.193,1.344 0.37,-0.036 0.763,-0.08 0.841,0 -0.172,0.69 -0.466,1.077 -0.756,1.479 0.793,0.012 1.994,-0.003 1.939,0.063 l -0.49,0.493 C -1.047,2.105 -0.255,1.867 0.32,1.69 0.579,1.89 0.315,2.144 0,2.403 0.659,2.317 1.253,2.168 1.791,1.962 2.078,2.218 1.604,2.473 1.375,2.729 2.392,2.539 2.823,2.272 3.25,2.004 3.561,2.298 3.268,2.547 3.059,2.802 3.826,2.522 4.22,2.162 4.636,1.805 4.777,1.992 4.994,2.13 4.732,2.582 5.276,2.272 5.686,1.908 5.989,1.501 6.326,1.712 6.19,2.001 6.191,2.267 6.757,1.813 7.116,1.331 7.556,0.86 7.644,0.924 7.722,1.139 7.79,1.48 9.139,0.19 11.046,-3.058 8.28,-4.346 5.926,-2.433 3.115,-1.043 -0.001,0 Z"
         style="fill:#68bf4b;fill-opacity:1;fill-rule:nonzero;stroke:none"
         transform="matrix(1.3333333,0,0,-1.3333333,-443.317,21.1404)"
         clip-path="url(#clipPath421-91)" />
      <path
         id="path422"
         d="m 0,0 c -4.004,-2.034 -6.333,-3.678 -7.608,-5.08 0.653,-2.579 4.061,-2.696 5.307,-2.624 -0.255,0.117 -0.468,0.257 -0.544,0.472 0.313,0.219 1.421,0.023 2.196,0.452 -0.298,0.06 -0.437,0.119 -0.576,0.336 0.731,0.229 1.519,0.427 1.982,0.808 -0.25,-0.003 -0.483,-0.055 -0.81,0.168 0.655,0.348 1.354,0.623 1.897,1.154 -0.339,0.008 -0.704,0.003 -0.81,0.126 0.599,0.366 1.105,0.773 1.524,1.218 -0.474,-0.057 -0.674,-0.008 -0.789,0.073 0.453,0.457 1.027,0.843 1.3,1.406 -0.351,-0.119 -0.673,-0.165 -0.905,0.011 0.154,0.342 0.813,0.544 1.193,1.344 -0.371,-0.036 -0.763,-0.08 -0.842,0 0.173,0.69 0.468,1.078 0.757,1.479 C 2.479,1.355 1.278,1.341 1.332,1.406 L 1.822,1.9 C 1.048,2.105 0.256,1.867 -0.319,1.69 -0.578,1.891 -0.315,2.144 0,2.404 -0.658,2.317 -1.252,2.168 -1.79,1.963 -2.077,2.218 -1.603,2.473 -1.374,2.729 -2.391,2.539 -2.822,2.272 -3.25,2.005 -3.56,2.298 -3.268,2.547 -3.058,2.802 -3.824,2.523 -4.219,2.162 -4.635,1.805 -4.776,1.993 -4.993,2.13 -4.731,2.582 -5.275,2.273 -5.685,1.909 -5.988,1.501 -6.325,1.712 -6.189,2.001 -6.191,2.267 -6.756,1.814 -7.116,1.332 -7.555,0.861 -7.643,0.924 -7.721,1.139 -7.789,1.48 -9.138,0.191 -11.045,-3.057 -8.279,-4.345 -5.926,-2.433 -3.115,-1.043 0,0 Z"
         style="fill:#68bf4b;fill-opacity:1;fill-rule:nonzero;stroke:none"
         transform="matrix(1.3333333,0,0,-1.3333333,-415.03527,21.1404)"
         clip-path="url(#clipPath423-5)" />
      <path
         id="path424"
         d="m 0,0 c 0.014,-2.406 -2.123,-4.367 -4.772,-4.38 -2.649,-0.012 -4.808,1.928 -4.822,4.334 V 0 C -9.608,2.406 -7.471,4.367 -4.822,4.38 -2.173,4.393 -0.014,2.452 0,0.046 V 0"
         style="fill:#c21e4a;fill-opacity:1;fill-rule:nonzero;stroke:none"
         transform="matrix(1.3333333,0,0,-1.3333333,-422.71833,56.1512)"
         clip-path="url(#clipPath425-1)" />
      <path
         id="path426"
         d="m 0,0 c 1.988,-1.283 2.346,-4.19 0.8,-6.494 -1.545,-2.304 -4.41,-3.132 -6.397,-1.849 -1.988,1.283 -2.346,4.19 -0.801,6.494 C -4.852,0.455 -1.988,1.283 0,0"
         style="fill:#c21e4a;fill-opacity:1;fill-rule:nonzero;stroke:none"
         transform="matrix(1.3333333,0,0,-1.3333333,-432.69087,39.5559)"
         clip-path="url(#clipPath427-8)" />
      <path
         id="path428"
         d="m 0,0 c -1.988,-1.282 -2.346,-4.19 -0.8,-6.494 1.545,-2.304 4.41,-3.132 6.397,-1.849 1.988,1.283 2.346,4.19 0.801,6.494 C 4.852,0.455 1.987,1.283 0,0"
         style="fill:#c21e4a;fill-opacity:1;fill-rule:nonzero;stroke:none"
         transform="matrix(1.3333333,0,0,-1.3333333,-425.5378,39.2463)"
         clip-path="url(#clipPath429-5)" />
      <path
         id="path430"
         d="M 0,0 C 2.146,0.566 0.724,-8.745 -1.022,-7.981 -2.943,-6.459 -3.561,-2.003 0,0"
         style="fill:#c21e4a;fill-opacity:1;fill-rule:nonzero;stroke:none"
         transform="matrix(1.3333333,0,0,-1.3333333,-445.7726,42.3697)"
         clip-path="url(#clipPath431-2)" />
      <path
         id="path432"
         d="M 0,0 C -2.146,0.566 -0.724,-8.745 1.022,-7.981 2.942,-6.46 3.561,-2.003 0,0"
         style="fill:#c21e4a;fill-opacity:1;fill-rule:nonzero;stroke:none"
         transform="matrix(1.3333333,0,0,-1.3333333,-412.70647,42.2149)"
         clip-path="url(#clipPath433-6)" />
      <path
         id="path434"
         d="M 0,0 C 3.703,0.616 6.785,-1.551 6.661,-5.507 6.539,-7.023 -1.365,-0.226 0,0"
         style="fill:#c21e4a;fill-opacity:1;fill-rule:nonzero;stroke:none"
         transform="matrix(1.3333333,0,0,-1.3333333,-422.30273,32.9519)"
         clip-path="url(#clipPath435-8)" />
      <path
         id="path436"
         d="M 0,0 C -3.704,0.616 -6.785,-1.552 -6.661,-5.507 -6.539,-7.023 1.364,-0.226 0,0"
         style="fill:#c21e4a;fill-opacity:1;fill-rule:nonzero;stroke:none"
         transform="matrix(1.3333333,0,0,-1.3333333,-435.94607,32.7971)"
         clip-path="url(#clipPath437-1)" />
      <path
         id="path438"
         d="M 0,0 C -2.21,0.057 -4.332,-1.616 -4.337,-2.586 -4.343,-3.764 -2.589,-4.971 0.015,-5.002 2.675,-5.021 4.371,-4.036 4.38,-2.82 4.39,-1.441 1.961,0.022 0,0"
         style="fill:#c21e4a;fill-opacity:1;fill-rule:nonzero;stroke:none"
         transform="matrix(1.3333333,0,0,-1.3333333,-429.14313,31.5672)"
         clip-path="url(#clipPath439-1)" />
      <path
         id="path440"
         d="M 0,0 C 1.927,0.083 4.513,-0.611 4.518,-1.532 4.55,-2.426 2.173,-4.447 -0.128,-4.408 -2.511,-4.51 -4.847,-2.486 -4.816,-1.784 -4.852,-0.756 -1.915,0.047 0,0"
         style="fill:#c21e4a;fill-opacity:1;fill-rule:nonzero;stroke:none"
         transform="matrix(1.3333333,0,0,-1.3333333,-428.91553,63.7955)"
         clip-path="url(#clipPath441-7)" />
      <path
         id="path442"
         d="M 0,0 C 1.372,-1.628 1.998,-4.489 0.853,-5.332 -0.231,-5.975 -2.862,-5.71 -4.731,-3.065 -5.992,-0.845 -5.83,1.415 -4.944,2.078 -3.62,2.873 -1.575,1.8 0,0"
         style="fill:#c21e4a;fill-opacity:1;fill-rule:nonzero;stroke:none"
         transform="matrix(1.3333333,0,0,-1.3333333,-438.425,56.5177)"
         clip-path="url(#clipPath443-7)" />
      <path
         id="path444"
         d="M 0,0 C -1.484,-1.713 -2.311,-4.836 -1.228,-5.843 -0.193,-6.624 2.587,-6.515 4.64,-3.709 6.131,-1.824 5.631,1.324 4.78,2.159 3.515,3.123 1.699,1.89 0,0 Z"
         style="fill:#c21e4a;fill-opacity:1;fill-rule:nonzero;stroke:none"
         transform="matrix(1.3333333,0,0,-1.3333333,-420.00647,55.8296)"
         clip-path="url(#clipPath445-4)" />
    </g>
  </g>
</svg>
